<svg width="102" height="23" viewBox="0 0 102 23" fill="none" xmlns="http://www.w3.org/2000/svg">
<path d="M0.638 22H8.854V19.894H3.576V12.172H7.814V10.092H3.576V3.124H8.802V0.939995H0.638V22Z" fill="#607D8B"/>
<path d="M16.5039 22.234C20.6379 22.234 21.8079 19.608 21.8079 15.734V14.174H19.0259V15.734C19.0259 18.23 18.8959 19.92 16.5299 19.92C14.5019 19.92 13.7999 18.88 13.7999 15.708V7.362C13.7999 4.762 14.0339 3.046 16.5299 3.046C18.9739 3.046 19.0259 4.65799 19.0259 6.998V8.48H21.8079V6.816C21.8079 3.02 20.4299 0.757996 16.5039 0.757996C12.0319 0.757996 10.8359 3.54 10.8359 7.804V15.24C10.8359 19.166 12.0319 22.234 16.5039 22.234Z" fill="#607D8B"/>
<path d="M29.9888 22.234C34.2268 22.234 35.7348 19.556 35.7348 15.422V7.414C35.7348 3.28 34.2268 0.757996 29.9888 0.757996C25.7248 0.757996 24.2168 3.254 24.2168 7.414V15.396C24.2168 19.582 25.6988 22.234 29.9888 22.234ZM29.9888 19.92C27.6228 19.92 27.1807 18.386 27.1807 16.046V6.816C27.1807 4.476 27.6228 3.046 29.9888 3.046C32.3288 3.046 32.7708 4.476 32.7708 6.816V16.046C32.7708 18.386 32.3288 19.92 29.9888 19.92Z" fill="#607D8B"/>
<path d="M38.6224 22H41.5604V12.146H46.9684V22H49.9064V0.939995H46.9684V10.04H41.5604V0.939995H38.6224V22Z" fill="#607D8B"/>
<path d="M58.5786 22.234C62.8166 22.234 64.3246 19.556 64.3246 15.422V7.414C64.3246 3.28 62.8166 0.757996 58.5786 0.757996C54.3146 0.757996 52.8066 3.254 52.8066 7.414V15.396C52.8066 19.582 54.2886 22.234 58.5786 22.234ZM58.5786 19.92C56.2126 19.92 55.7706 18.386 55.7706 16.046V6.816C55.7706 4.476 56.2126 3.046 58.5786 3.046C60.9186 3.046 61.3606 4.476 61.3606 6.816V16.046C61.3606 18.386 60.9186 19.92 58.5786 19.92Z" fill="#607D8B"/>
<path d="M72.6462 22.234C77.2222 22.234 78.2362 19.322 78.2362 14.902V0.939995H75.4542V15.032C75.4542 17.762 75.1162 19.92 72.6462 19.92C70.1762 19.92 69.8382 17.762 69.8382 15.032V0.939995H67.0302V14.902C67.0302 19.322 68.0442 22.234 72.6462 22.234Z" fill="#607D8B"/>
<path d="M86.2954 22.234C89.2334 22.234 91.3394 20.336 91.3394 17.216C91.3394 14.59 89.9094 12.718 88.3234 11.314L84.7614 8.194C83.7734 7.336 83.3834 6.608 83.3834 5.334C83.3834 3.8 84.2414 3.02 85.6974 3.02C87.8814 3.02 88.3494 4.788 88.5054 6.868L91.0014 6.192C90.6634 2.5 89.0514 0.757996 85.6974 0.757996C82.6554 0.757996 80.7574 2.526 80.7574 5.62C80.7574 7.726 81.3814 9.052 82.7854 10.274L86.3214 13.394C87.6474 14.564 88.6094 15.552 88.6094 17.45C88.6094 19.062 87.8034 19.92 86.2954 19.92C84.0334 19.92 83.4614 17.658 83.3054 15.396L80.7054 16.098C80.9134 19.738 82.6294 22.234 86.2954 22.234Z" fill="#607D8B"/>
<path d="M93.6185 22H101.834V19.894H96.5565V12.172H100.794V10.092H96.5565V3.124H101.782V0.939995H93.6185V22Z" fill="#607D8B"/>
</svg>
